<mxfile host="app.diagrams.net" modified="2022-06-29T09:30:59.518Z" agent="5.0 (Windows NT 10.0; Win64; x64) AppleWebKit/537.36 (KHTML, like Gecko) Chrome/102.0.0.0 Safari/537.36" etag="2bszDcHeKrSvGb39jqK6" version="20.0.3" type="github">
  <diagram id="05oOa-pxcbI6ZQxnwbkl" name="第 1 页">
    <mxGraphModel dx="1422" dy="762" grid="1" gridSize="10" guides="1" tooltips="1" connect="1" arrows="1" fold="1" page="1" pageScale="1" pageWidth="1169" pageHeight="1654" math="0" shadow="0">
      <root>
        <mxCell id="0" />
        <mxCell id="1" parent="0" />
        <mxCell id="VeL9HDb_X5r2DI6gPPzb-3" style="edgeStyle=orthogonalEdgeStyle;rounded=0;orthogonalLoop=1;jettySize=auto;html=1;exitX=1;exitY=0.5;exitDx=0;exitDy=0;entryX=0;entryY=0.5;entryDx=0;entryDy=0;" edge="1" parent="1" source="VeL9HDb_X5r2DI6gPPzb-1" target="VeL9HDb_X5r2DI6gPPzb-4">
          <mxGeometry relative="1" as="geometry">
            <mxPoint x="850" y="325" as="targetPoint" />
          </mxGeometry>
        </mxCell>
        <mxCell id="VeL9HDb_X5r2DI6gPPzb-12" style="edgeStyle=orthogonalEdgeStyle;rounded=0;orthogonalLoop=1;jettySize=auto;html=1;entryX=0;entryY=0.5;entryDx=0;entryDy=0;" edge="1" parent="1" target="VeL9HDb_X5r2DI6gPPzb-11">
          <mxGeometry relative="1" as="geometry">
            <mxPoint x="350" y="410" as="sourcePoint" />
            <Array as="points">
              <mxPoint x="350" y="408" />
              <mxPoint x="350" y="540" />
            </Array>
          </mxGeometry>
        </mxCell>
        <mxCell id="VeL9HDb_X5r2DI6gPPzb-1" value="" style="rounded=0;whiteSpace=wrap;html=1;glass=0;" vertex="1" parent="1">
          <mxGeometry x="300" y="242.5" width="520" height="165" as="geometry" />
        </mxCell>
        <mxCell id="VeL9HDb_X5r2DI6gPPzb-5" style="edgeStyle=orthogonalEdgeStyle;rounded=0;orthogonalLoop=1;jettySize=auto;html=1;exitX=1;exitY=0.5;exitDx=0;exitDy=0;entryX=0;entryY=0.5;entryDx=0;entryDy=0;" edge="1" parent="1" source="VeL9HDb_X5r2DI6gPPzb-2" target="VeL9HDb_X5r2DI6gPPzb-1">
          <mxGeometry relative="1" as="geometry" />
        </mxCell>
        <mxCell id="VeL9HDb_X5r2DI6gPPzb-2" value="NEW" style="rounded=1;whiteSpace=wrap;html=1;" vertex="1" parent="1">
          <mxGeometry x="70" y="295" width="120" height="60" as="geometry" />
        </mxCell>
        <mxCell id="VeL9HDb_X5r2DI6gPPzb-4" value="TERMINATED" style="rounded=1;whiteSpace=wrap;html=1;" vertex="1" parent="1">
          <mxGeometry x="960" y="295" width="120" height="60" as="geometry" />
        </mxCell>
        <mxCell id="VeL9HDb_X5r2DI6gPPzb-6" value="Ready" style="text;html=1;strokeColor=none;fillColor=none;align=center;verticalAlign=middle;whiteSpace=wrap;rounded=0;glass=0;" vertex="1" parent="1">
          <mxGeometry x="350" y="310" width="60" height="30" as="geometry" />
        </mxCell>
        <mxCell id="VeL9HDb_X5r2DI6gPPzb-7" value="Running" style="text;html=1;strokeColor=none;fillColor=none;align=center;verticalAlign=middle;whiteSpace=wrap;rounded=0;glass=0;" vertex="1" parent="1">
          <mxGeometry x="670" y="310" width="60" height="30" as="geometry" />
        </mxCell>
        <mxCell id="VeL9HDb_X5r2DI6gPPzb-8" value="Runnable" style="text;html=1;strokeColor=none;fillColor=none;align=center;verticalAlign=middle;whiteSpace=wrap;rounded=0;glass=0;" vertex="1" parent="1">
          <mxGeometry x="520" y="210" width="60" height="20" as="geometry" />
        </mxCell>
        <mxCell id="VeL9HDb_X5r2DI6gPPzb-11" value="wait" style="rounded=1;whiteSpace=wrap;html=1;glass=0;" vertex="1" parent="1">
          <mxGeometry x="490" y="520" width="110" height="40" as="geometry" />
        </mxCell>
      </root>
    </mxGraphModel>
  </diagram>
</mxfile>
